<svg xmlns="http://www.w3.org/2000/svg" xmlns:xlink="http://www.w3.org/1999/xlink" width="1080" zoomAndPan="magnify" viewBox="0 0 810 809.999993" height="1080" preserveAspectRatio="xMidYMid meet" version="1.0"><defs><clipPath id="dfae2bcc21"><path d="M 195.429688 175.527344 L 614.679688 175.527344 L 614.679688 632 L 195.429688 632 Z M 195.429688 175.527344 " clip-rule="nonzero"/></clipPath><clipPath id="479c499870"><path d="M 195.429688 380 L 398 380 L 398 634.527344 L 195.429688 634.527344 Z M 195.429688 380 " clip-rule="nonzero"/></clipPath></defs><rect x="-81" width="972" fill="#ffffff" y="-80.999999" height="971.999992" fill-opacity="1"/><rect x="-81" width="972" fill="#000000" y="-80.999999" height="971.999992" fill-opacity="1"/><g clip-path="url(#dfae2bcc21)"><path fill="#ffffff" d="M 242.269531 346.886719 C 242.269531 346.941406 242.28125 346.992188 242.308594 347.039062 C 242.332031 347.085938 242.367188 347.121094 242.414062 347.152344 C 242.457031 347.179688 242.507812 347.195312 242.5625 347.199219 C 242.613281 347.203125 242.667969 347.191406 242.714844 347.171875 L 397.460938 275.65625 C 397.511719 275.632812 397.570312 275.621094 397.628906 275.625 C 397.683594 275.628906 397.738281 275.648438 397.789062 275.679688 C 397.839844 275.710938 397.878906 275.753906 397.90625 275.808594 C 397.933594 275.859375 397.949219 275.914062 397.949219 275.976562 L 397.960938 330.589844 C 397.960938 330.792969 397.867188 330.9375 397.683594 331.027344 L 195.808594 424.34375 C 195.582031 424.449219 195.46875 424.375 195.46875 424.125 L 195.46875 175.851562 C 195.46875 175.640625 195.574219 175.53125 195.78125 175.53125 C 275.199219 175.527344 354.601562 175.527344 433.984375 175.527344 C 471.910156 175.527344 507.023438 188.734375 535.359375 213.5625 C 572.984375 246.527344 592.339844 295.136719 589.355469 345.222656 C 587.761719 371.960938 580.070312 398.214844 566.050781 420.839844 C 551.859375 443.757812 532.804688 461.707031 508.882812 474.695312 C 508.691406 474.796875 508.65625 474.9375 508.777344 475.117188 L 614.625 631.171875 C 614.644531 631.207031 614.648438 631.238281 614.628906 631.273438 C 614.609375 631.308594 614.582031 631.328125 614.539062 631.328125 L 550.863281 631.335938 C 550.652344 631.335938 550.484375 631.246094 550.363281 631.070312 L 424.082031 445.355469 C 423.945312 445.15625 424 445.054688 424.242188 445.054688 C 428.082031 445.078125 431.980469 445.066406 435.9375 445.011719 C 494.695312 444.265625 537.996094 395.867188 540.015625 338.730469 C 541.433594 298.71875 521.007812 262.238281 487.824219 240.453125 C 474.089844 231.433594 459.203125 226.011719 443.160156 224.195312 C 440.160156 223.851562 436.144531 223.679688 431.117188 223.679688 C 368.339844 223.707031 305.527344 223.710938 242.679688 223.695312 C 242.40625 223.695312 242.269531 223.832031 242.269531 224.105469 Z M 242.269531 346.886719 " fill-opacity="1" fill-rule="nonzero"/></g><g clip-path="url(#479c499870)"><path fill="#ffffff" d="M 195.601562 474.066406 L 397.621094 380.691406 C 397.699219 380.65625 397.773438 380.660156 397.84375 380.707031 C 397.917969 380.75 397.953125 380.816406 397.953125 380.902344 L 397.960938 435.847656 C 397.957031 435.949219 397.914062 436.019531 397.820312 436.058594 L 195.800781 529.433594 C 195.722656 529.46875 195.648438 529.460938 195.578125 529.417969 C 195.507812 529.371094 195.46875 529.304688 195.46875 529.222656 L 195.464844 474.277344 C 195.464844 474.179688 195.511719 474.109375 195.601562 474.066406 Z M 397.78125 541.171875 L 195.902344 634.496094 C 195.804688 634.542969 195.707031 634.535156 195.617188 634.476562 C 195.523438 634.417969 195.476562 634.335938 195.476562 634.226562 L 195.464844 579.410156 C 195.464844 579.28125 195.523438 579.191406 195.636719 579.136719 L 397.527344 485.824219 C 397.625 485.78125 397.722656 485.785156 397.8125 485.84375 C 397.90625 485.902344 397.953125 485.988281 397.953125 486.097656 L 397.953125 540.902344 C 397.953125 541.027344 397.894531 541.117188 397.78125 541.171875 Z M 397.78125 541.171875 " fill-opacity="1" fill-rule="nonzero"/></g></svg>